<svg id="wave" style="transform:rotate(180deg); transition: 0.3s" viewBox="0 0 1440 490" version="1.1" xmlns="http://www.w3.org/2000/svg"><defs><linearGradient id="sw-gradient-0" x1="0" x2="0" y1="1" y2="0"><stop stop-color="rgba(95, 141, 78, 1)" offset="0%"></stop><stop stop-color="rgba(244, 255, 243, 1)" offset="100%"></stop></linearGradient></defs><path style="transform:translate(0, 0px); opacity:1" fill="url(#sw-gradient-0)" d="M0,98L40,155.2C80,212,160,327,240,326.7C320,327,400,212,480,171.5C560,131,640,163,720,204.2C800,245,880,294,960,334.8C1040,376,1120,408,1200,375.7C1280,343,1360,245,1440,245C1520,245,1600,343,1680,326.7C1760,310,1840,180,1920,163.3C2000,147,2080,245,2160,310.3C2240,376,2320,408,2400,351.2C2480,294,2560,147,2640,98C2720,49,2800,98,2880,155.2C2960,212,3040,278,3120,285.8C3200,294,3280,245,3360,245C3440,245,3520,294,3600,310.3C3680,327,3760,310,3840,326.7C3920,343,4000,392,4080,408.3C4160,425,4240,408,4320,408.3C4400,408,4480,425,4560,383.8C4640,343,4720,245,4800,187.8C4880,131,4960,114,5040,106.2C5120,98,5200,98,5280,138.8C5360,180,5440,261,5520,285.8C5600,310,5680,278,5720,261.3L5760,245L5760,490L5720,490C5680,490,5600,490,5520,490C5440,490,5360,490,5280,490C5200,490,5120,490,5040,490C4960,490,4880,490,4800,490C4720,490,4640,490,4560,490C4480,490,4400,490,4320,490C4240,490,4160,490,4080,490C4000,490,3920,490,3840,490C3760,490,3680,490,3600,490C3520,490,3440,490,3360,490C3280,490,3200,490,3120,490C3040,490,2960,490,2880,490C2800,490,2720,490,2640,490C2560,490,2480,490,2400,490C2320,490,2240,490,2160,490C2080,490,2000,490,1920,490C1840,490,1760,490,1680,490C1600,490,1520,490,1440,490C1360,490,1280,490,1200,490C1120,490,1040,490,960,490C880,490,800,490,720,490C640,490,560,490,480,490C400,490,320,490,240,490C160,490,80,490,40,490L0,490Z"></path></svg>